<svg xmlns="http://www.w3.org/2000/svg" viewBox="0 0 1893.47 983.26"><defs><style>.cls-1{isolation:isolate;}.cls-2{fill:#d8dcdc;}.cls-3{fill:#21111d;}.cls-4{fill:#ea2d3f;}.cls-5{fill:#ff424d;}.cls-6{fill:#258d8c;}.cls-7{fill:#fff;}.cls-10,.cls-8{fill:#fecc86;}.cls-9{fill:#4cb7d8;}.cls-10{opacity:0.3;mix-blend-mode:multiply;}.cls-11{fill:#f99247;}.cls-12{opacity:0.5;}.cls-13{fill:#f3fffe;}</style></defs><g class="cls-1"><g id="Layer_2" data-name="Layer 2"><g id="Layer_1-2" data-name="Layer 1"><path class="cls-2" d="M1658.68,982.17l142.71,1.09c119.14-81.15,116.74-314.8,26.81-413.07-151.1-165.09-208-133.4-287.16-191.53s4.45-271.65-220.73-353.5S790.84,83.28,667.6,130.73,486.54,147.34,415,128.36s-219.09,1.18-334.72,159S5.76,637.23,28.58,709.82s32,68.57-16.74,148.94C-24,917.88,30,963.35,61,983.26H1658.68Z"/><path class="cls-3" d="M1490.37,452.5a1.17,1.17,0,0,0,1.12-.83c0-.09.64-2.13,1.48-5.75a1.17,1.17,0,0,0-2.28-.53c-.82,3.54-1.44,5.58-1.44,5.6a1.17,1.17,0,0,0,.78,1.46A1,1,0,0,0,1490.37,452.5Z"/><path class="cls-3" d="M1493.92,435.1a1.17,1.17,0,0,1-1-1.34c.62-3.91,1.12-7.87,1.48-11.77a1.17,1.17,0,0,1,2.34.21c-.37,4-.88,8-1.51,11.93a1.16,1.16,0,0,1-1.15,1Zm2.35-23.75a1.19,1.19,0,0,1-1.15-1.2c0-1.21,0-2.42,0-3.6,0-2.77-.07-5.55-.22-8.25a1.17,1.17,0,1,1,2.34-.13c.15,2.74.23,5.56.23,8.38,0,1.2,0,2.43,0,3.65a1.17,1.17,0,0,1-1.17,1.15Zm-2.49-24.83a115.56,115.56,0,0,0-2.26-11.6,1.17,1.17,0,1,1,2.28-.56,120,120,0,0,1,2.3,11.82,1.17,1.17,0,0,1-1,1.33h-.17A1.18,1.18,0,0,1,1493.78,386.52ZM1388.26,374.9a21.76,21.76,0,0,1-11.09-5.61,1.17,1.17,0,0,1,0-1.66,1.19,1.19,0,0,1,1.66,0,19.42,19.42,0,0,0,9.91,5,1.17,1.17,0,0,1-.22,2.32A.82.82,0,0,1,1388.26,374.9Zm10.93-1.2a1.17,1.17,0,0,1,.71-1.5c3.15-1.13,5.84-3.72,7.77-7.49a1.17,1.17,0,0,1,2.08,1.07c-2.21,4.31-5.34,7.29-9.06,8.62a1.09,1.09,0,0,1-.4.07A1.17,1.17,0,0,1,1399.19,373.7Zm88.84-10a90.17,90.17,0,0,0-4.84-10.74,1.17,1.17,0,1,1,2.06-1.1,93.15,93.15,0,0,1,5,11,1.17,1.17,0,0,1-.68,1.51,1.24,1.24,0,0,1-.41.08A1.17,1.17,0,0,1,1488,363.66Zm-117.35-4.91a37.1,37.1,0,0,1-1.82-11.81v-.33a1.17,1.17,0,0,1,1.17-1.16h0a1.17,1.17,0,0,1,1.16,1.17v.32a34.75,34.75,0,0,0,1.7,11.06,1.17,1.17,0,0,1-1.11,1.55A1.17,1.17,0,0,1,1370.68,358.75ZM1411.8,355a1.16,1.16,0,0,1-1-1.3,50,50,0,0,0,.29-5.42,55.67,55.67,0,0,0-.35-6.24,1.17,1.17,0,1,1,2.33-.25,60.11,60.11,0,0,1,.37,6.49,50.06,50.06,0,0,1-.32,5.69,1.17,1.17,0,0,1-1.16,1Zm65.14-12a80.38,80.38,0,0,0-7.62-8.95,1.17,1.17,0,0,1,1.67-1.65,84.09,84.09,0,0,1,7.84,9.22,1.18,1.18,0,0,1-.25,1.64,1.21,1.21,0,0,1-.7.22A1.14,1.14,0,0,1,1476.94,343Zm-105.54-7a1.17,1.17,0,0,1-.81-1.45,46.69,46.69,0,0,1,4.76-11.24,1.17,1.17,0,1,1,2,1.19,44.57,44.57,0,0,0-4.53,10.68,1.16,1.16,0,0,1-1.13.86A1.15,1.15,0,0,1,1371.4,336Zm37-5.44a80.39,80.39,0,0,0-4.08-11,1.17,1.17,0,0,1,2.13-1,81.62,81.62,0,0,1,4.2,11.36,1.16,1.16,0,0,1-.8,1.44.93.93,0,0,1-.32.05A1.17,1.17,0,0,1,1408.42,330.52Zm52.09-4.34a96.85,96.85,0,0,0-9.71-6.7,1.17,1.17,0,0,1,1.21-2,100.32,100.32,0,0,1,9.94,6.86,1.17,1.17,0,0,1-.72,2.09A1.2,1.2,0,0,1,1460.51,326.18Zm-77.37-10.63a1.17,1.17,0,0,1,.16-1.65,36.78,36.78,0,0,1,10.66-6.08,1.17,1.17,0,0,1,.81,2.2,34.51,34.51,0,0,0-10,5.69,1.17,1.17,0,0,1-1.65-.16Zm57.21-1.52a86.18,86.18,0,0,0-11.07-4,1.17,1.17,0,0,1,.64-2.25,86,86,0,0,1,11.38,4.12,1.17,1.17,0,0,1-.48,2.24A1.1,1.1,0,0,1,1440.35,314Zm-41.6-4.9a95.4,95.4,0,0,0-6.9-9.55,1.17,1.17,0,0,1,1.81-1.49,95.86,95.86,0,0,1,7.07,9.79,1.17,1.17,0,0,1-.37,1.62,1.16,1.16,0,0,1-1.61-.37Zm19-1.42a58.19,58.19,0,0,0-11.69-.19,1.17,1.17,0,0,1-1.27-1.06,1.18,1.18,0,0,1,1.06-1.27,60.63,60.63,0,0,1,12.16.19,1.17,1.17,0,0,1-.13,2.34Zm-34-16.75a77.06,77.06,0,0,0-9.2-7.3,1.17,1.17,0,0,1,1.31-1.94,79.1,79.1,0,0,1,9.49,7.53,1.17,1.17,0,0,1-.8,2A1.2,1.2,0,0,1,1383.82,291Zm-19.38-13.24a107.18,107.18,0,0,0-10.84-4.7,1.17,1.17,0,0,1,.82-2.2,113,113,0,0,1,11.08,4.8,1.17,1.17,0,0,1-.53,2.22A1.24,1.24,0,0,1,1364.44,277.72Zm-22.11-8.29c-3.71-1-7.6-1.88-11.56-2.62a1.17,1.17,0,1,1,.43-2.3c4,.75,8,1.65,11.74,2.66a1.17,1.17,0,0,1-.31,2.3A1,1,0,0,1,1342.33,269.43ZM1319,265c-3.88-.45-7.86-.79-11.83-1a1.17,1.17,0,1,1,.12-2.34c4,.21,8,.55,12,1a1.17,1.17,0,0,1-.13,2.34Z"/><path class="cls-3" d="M1289.39,264h.09s2.16-.16,5.78-.21a1.17,1.17,0,0,0,0-2.34h0c-3.7,0-5.84.21-5.92.21a1.17,1.17,0,0,0-1.08,1.26A1.16,1.16,0,0,0,1289.39,264Z"/><path class="cls-4" d="M1273.25,274.77l-6.61-7.58s-32.82-3.56-33.28-3.79L1216,254.7l21.2-1.23,34.66,5Z"/><polygon class="cls-5" points="1279.74 241.5 1216.03 254.7 1271.89 258.46 1279.74 241.5"/><polygon class="cls-5" points="1266.64 267.19 1258.4 285.25 1216.03 254.7 1266.64 267.19"/><path class="cls-6" d="M1534.1,982.2c4.42-4.37,39-65.5,62.87-34.06,0,0,39.07-88.65,88.54-71.29,0,0,31.55,18,8.64,62.88,0,0,76.37-4.8,75.37,42.47Z"/><path d="M1652.27,887.17a.39.39,0,0,1-.24-.69c.39-.29,9.54-7.34,17.91-8.33a.4.4,0,0,1,.43.34.38.38,0,0,1-.34.42c-8.15,1-17.43,8.1-17.52,8.18A.43.43,0,0,1,1652.27,887.17Z"/><path d="M1652.27,891.61a.39.39,0,0,1-.3-.14.37.37,0,0,1,.06-.54,46.41,46.41,0,0,1,14.34-7.32.38.38,0,0,1,.48.26.38.38,0,0,1-.27.47,45.91,45.91,0,0,0-14.07,7.18A.36.36,0,0,1,1652.27,891.61Z"/><ellipse class="cls-6" cx="1732.62" cy="866.96" rx="24.82" ry="13.33" transform="translate(-50 1625.81) rotate(-49.64)"/><path class="cls-6" d="M1735.76,899.82c-5.22,6.21-6.72,13.49-3.35,16.25s10.35-.05,15.57-6.26,6.72-13.48,3.34-16.24S1741,893.61,1735.76,899.82Z"/><path class="cls-7" d="M1132.3,344.47c16.21-.18,54.17,0,86.89,4.54,13.54,1.89,26-9.07,26.63-23.58.25-5.94-1.32-12.94-6-21-18.08-31.1-54.63-4.05-55.26,11.25,0,0-5.57-23.36-27.15-20.38s-16.15,36.82-16.15,36.82-6.78-1.88-11.77,1.34S1126.61,344.54,1132.3,344.47Z"/><path class="cls-7" d="M718.62,430.79c26.18-2.08,90.06-6.22,128.63-.88a6.12,6.12,0,0,0,5.5-10c-2.66-3.06-7.36-5.6-15.6-5.89,0,0,7.26-35.82-27.34-38.84-35.56-3.11-35.68,34.48-35.68,34.48s-21-19.5-30.79,5c0,0-22-9.39-31.86,2.63A8.33,8.33,0,0,0,718.62,430.79Z"/><path class="cls-8" d="M1768.9,550.15a97.69,97.69,0,1,0-167.17,68.65h0s29.56,31.61,39.55,66.07c0,0,17.07,5.79,30,6.12,12.88-.33,30-6.12,30-6.12,10-34.46,39.54-66.07,39.54-66.07h0A97.38,97.38,0,0,0,1768.9,550.15Z"/><path class="cls-9" d="M1671.19,742.27h0A15.19,15.19,0,0,1,1656,727.08h30.37A15.19,15.19,0,0,1,1671.19,742.27Z"/><path class="cls-9" d="M1638.63,677.08h65.13a0,0,0,0,1,0,0v21.6a32.56,32.56,0,0,1-32.56,32.56h0a32.56,32.56,0,0,1-32.56-32.56v-21.6A0,0,0,0,1,1638.63,677.08Z"/><path class="cls-10" d="M1768.9,550.15a97.23,97.23,0,0,0-16.3-54c-28.57,70.4-74.14,117.75-139.77,136.11,8.26,10.84,19.22,27.17,25.85,44.87h65.08c11.71-31.29,37-58.28,37-58.28h0A97.38,97.38,0,0,0,1768.9,550.15Z"/><path class="cls-11" d="M1687.18,677.46l-2.8-.76c.09-.34,9.2-33.83,15.52-68.14,11-59.53,4.66-72.15-.07-74.38s-8.65-1.87-11.32,1.21c-.19.23-.38.46-.55.71a18.09,18.09,0,0,1,8.87,12.72c1.08,6.91-2,13.81-6.89,15.38-1.18.38-3.46.57-5.43-2.4-3.12-4.73-4.1-16.54-.6-24.41a32,32,0,0,0-12.13-2.11H1669a32,32,0,0,0-12.13,2.11c3.5,7.87,2.53,19.68-.6,24.41-2,3-4.24,2.78-5.42,2.4-4.89-1.57-8-8.47-6.89-15.38a18.05,18.05,0,0,1,8.87-12.72c-.18-.25-.36-.48-.56-.71-2.67-3.08-6.47-3.49-11.31-1.21s-11,14.85-.08,74.38c6.32,34.31,15.43,67.8,15.52,68.14l-2.79.76c-.09-.33-9.23-33.93-15.57-68.36-8.76-47.52-8.2-72.89,1.68-77.54,7.68-3.61,12.25-.94,14.74,1.94a12.92,12.92,0,0,1,1,1.29,34.23,34.23,0,0,1,13.55-2.4h2.82a34.32,34.32,0,0,1,13.56,2.4,12.85,12.85,0,0,1,1-1.29c2.49-2.88,7.07-5.55,14.74-1.94,9.89,4.65,10.44,30,1.69,77.54C1696.41,643.53,1687.27,677.13,1687.18,677.46Zm-33-138.79a14.62,14.62,0,0,0-7.45,10.6c-.94,6,1.78,11.16,4.91,12.17.3.09,1.07.34,2.12-1.24C1656.49,556.15,1657.19,545.47,1654.23,538.67Zm32.29,0c-3,6.8-2.26,17.48.41,21.53,1,1.58,1.83,1.33,2.12,1.24,3.14-1,5.86-6.14,4.91-12.17A14.58,14.58,0,0,0,1686.52,538.67Z"/><path class="cls-3" d="M1638.16,677.76c-.78-2.22-1.13-3-1.9-4.83l-.42-1c-12.2-28.48-34.42-52.43-34.65-52.67l-.07-.07a98.42,98.42,0,1,1,152.49-122.91l-1.22.8a97,97,0,1,0-150.15,121.18l1,1-.07,0c4.25,4.75,23.13,26.63,34.05,52.13l.42,1c.78,1.82,1.14,2.65,1.94,4.92Z"/><path class="cls-3" d="M1603,505.05l-1.39-.4c.07-.24,7.29-24.29,31.59-33.32l.5,1.35C1610.1,481.46,1603.07,504.82,1603,505.05Z"/><path class="cls-3" d="M1607.48,513.75l-1.39-.41c.07-.24,7.29-24.28,31.59-33.32l.5,1.36C1614.58,490.16,1607.55,513.51,1607.48,513.75Z"/><path class="cls-3" d="M1674.74,732h-7.1a29.77,29.77,0,0,1-29.73-29.74V676.36h65.85v1.44h-64.41v24.43a28.33,28.33,0,0,0,28.29,28.29h7.1a28.15,28.15,0,0,0,19.84-8.12l1,1A29.6,29.6,0,0,1,1674.74,732Z"/><path class="cls-3" d="M1671.62,743c-14.12,0-16.16-13.69-16.18-13.83l1.44-.2c.07.52,2,12.88,15.21,12.57l0,1.45Z"/><path class="cls-3" d="M1738.2,604.83l-.86-1.16c12.89-9.56,14.92-25.53,14.94-25.69l1.44.17C1753.7,578.31,1751.61,594.89,1738.2,604.83Z"/><path class="cls-3" d="M1735.35,597.88l-.86-1.17c9.39-7,10.88-18.62,10.89-18.73l1.44.17C1746.76,578.65,1745.26,590.52,1735.35,597.88Z"/><path class="cls-3" d="M1635.64,690.1l0-1.45c.56,0,55.47-.72,72.86-7.2l.51,1.36C1691.36,689.38,1637.91,690.07,1635.64,690.1Z"/><path class="cls-3" d="M1635.65,702.34l0-1.45c.6,0,60.19-1.19,71.33-7.16l.69,1.28C1696.19,701.14,1638.11,702.29,1635.65,702.34Z"/><path class="cls-3" d="M1638.64,714.9l0-1.45c.54,0,54-.57,68.34-8l.67,1.29C1693,714.33,1640.85,714.88,1638.64,714.9Z"/><path class="cls-11" d="M1548.63,534.77h-.19l-34.56-2.95a2.17,2.17,0,1,1,.36-4.33l34.57,2.94a2.17,2.17,0,0,1-.18,4.34Z"/><path class="cls-11" d="M1566.51,479.7a2.17,2.17,0,0,1-1.23-.38l-28.63-19.59a2.18,2.18,0,0,1,2.46-3.59l28.63,19.59a2.17,2.17,0,0,1-1.23,4Z"/><path class="cls-11" d="M1618.26,440.2a2.18,2.18,0,0,1-2-1.36l-13-32.14a2.17,2.17,0,0,1,4-1.64l13.06,32.15a2.17,2.17,0,0,1-2,3Z"/><path class="cls-11" d="M1792.07,541a2.17,2.17,0,0,1-.15-4.34l34.62-2.29a2.17,2.17,0,0,1,.29,4.34L1792.21,541Z"/><path class="cls-11" d="M1775.23,485.64a2.17,2.17,0,0,1-1.19-4l29-19a2.17,2.17,0,1,1,2.38,3.63l-29,19A2.16,2.16,0,0,1,1775.23,485.64Z"/><path class="cls-11" d="M1730.94,440.07a2.35,2.35,0,0,1-.86-.17,2.19,2.19,0,0,1-1.14-2.86l13.66-31.89a2.18,2.18,0,0,1,4,1.71l-13.66,31.89A2.18,2.18,0,0,1,1730.94,440.07Z"/><path class="cls-11" d="M1675.21,423.19h0A2.18,2.18,0,0,1,1673,421l.53-34.69a2.18,2.18,0,0,1,2.18-2.14h0a2.18,2.18,0,0,1,2.14,2.21l-.53,34.69A2.18,2.18,0,0,1,1675.21,423.19Z"/><g class="cls-12"><ellipse class="cls-13" cx="1716.66" cy="490.08" rx="11.43" ry="23.94" transform="translate(374.82 1667.61) rotate(-57.2)"/></g></g></g></g></svg>